<?xml version="1.0" encoding="utf-8"?>
<!-- Generator: Adobe Illustrator 16.0.3, SVG Export Plug-In . SVG Version: 6.00 Build 0)  -->
<!DOCTYPE svg PUBLIC "-//W3C//DTD SVG 1.1//EN" "http://www.w3.org/Graphics/SVG/1.1/DTD/svg11.dtd">
<svg version="1.1" id="Layer_1" xmlns="http://www.w3.org/2000/svg" xmlns:xlink="http://www.w3.org/1999/xlink" x="0px" y="0px"
	 width="141.73px" height="141.73px" viewBox="0 0 141.73 141.73" enable-background="new 0 0 141.73 141.73" xml:space="preserve">
<g>
	<path d="M64.3,102.45c-5.66-0.18-10.46,1.8-14.13,5.57c6.12,3.42,13.18,5.37,20.7,5.37c3.44,0,6.79-0.41,9.99-1.18C77.43,106.1,71.83,102.69,64.3,102.45"/>
	<path d="M70.87,28.35c-23.48,0-42.52,19.04-42.52,42.52c0,10.53,3.83,20.16,10.17,27.59c6.8-6.18,15.82-9.6,26.07-9.27c13.42,0.44,24.11,6.58,30.5,16.63c11.06-7.68,18.3-20.47,18.3-34.95C113.39,47.38,94.35,28.35,70.87,28.35M91.7,85.81c-0.77,1.26-2.41,1.66-3.67,0.89c-10.06-6.15-22.72-7.53-37.63-4.13c-1.44,0.33-2.87-0.57-3.2-2.01c-0.33-1.44,0.57-2.87,2.01-3.2c16.31-3.73,30.31-2.12,41.6,4.78C92.07,82.91,92.47,84.55,91.7,85.81M96.94,74.15c-0.97,1.57-3.02,2.06-4.59,1.1c-11.51-7.08-29.06-9.12-42.68-4.99c-1.77,0.53-3.63-0.46-4.17-2.22c-0.53-1.77,0.46-3.63,2.23-4.17c15.56-4.72,34.9-2.43,48.12,5.69C97.42,70.52,97.91,72.58,96.94,74.15M97.39,62c-13.81-8.2-36.58-8.95-49.76-4.95c-2.12,0.64-4.36-0.55-5-2.67c-0.64-2.12,0.55-4.35,2.67-5c15.13-4.59,40.28-3.71,56.17,5.73c1.9,1.13,2.53,3.59,1.4,5.49C101.75,62.51,99.3,63.13,97.39,62"/>
</g>
</svg>
